PathFileType	4	(X/Y/Z)	..\data\2014048\dynamic\2014048_C4_01.trc
DataRate	CameraRate	NumFrames	NumMarkers	Units	OrigDataRate	OrigDataStartFrame	OrigNumFrames
100.000000	100.000000	4	52	mm	100.000000	93	186
Frame#	Time	L_IAS			L_IPS			R_IPS			R_IAS			L_FTC			L_FLE			L_FME			L_FAX			L_TTC			L_FAL			L_TAM			L_FCC			L_FM1			L_FM2			L_FM5			R_FTC			R_FLE			R_FME			R_FAX			R_TTC			R_FAL			R_TAM			R_FCC			R_FM1			R_FM2			R_FM5			CV7			TV10			SXS			SJN			L_SIA			L_SRS			L_SAA			L_SAE			L_HLE			L_HME			L_UOA			L_RSP			L_UHE			L_HM2			L_HM5			R_SIA			R_SRS			R_SAA			R_SAE			R_HLE			R_HME			R_UOA			R_RSP			R_UHE			R_HM2			R_HM5			
		X1	Y1	Z1	X2	Y2	Z2	X3	Y3	Z3	X4	Y4	Z4	X5	Y5	Z5	X6	Y6	Z6	X7	Y7	Z7	X8	Y8	Z8	X9	Y9	Z9	X10	Y10	Z10	X11	Y11	Z11	X12	Y12	Z12	X13	Y13	Z13	X14	Y14	Z14	X15	Y15	Z15	X16	Y16	Z16	X17	Y17	Z17	X18	Y18	Z18	X19	Y19	Z19	X20	Y20	Z20	X21	Y21	Z21	X22	Y22	Z22	X23	Y23	Z23	X24	Y24	Z24	X25	Y25	Z25	X26	Y26	Z26	X27	Y27	Z27	X28	Y28	Z28	X29	Y29	Z29	X30	Y30	Z30	X31	Y31	Z31	X32	Y32	Z32	X33	Y33	Z33	X34	Y34	Z34	X35	Y35	Z35	X36	Y36	Z36	X37	Y37	Z37	X38	Y38	Z38	X39	Y39	Z39	X40	Y40	Z40	X41	Y41	Z41	X42	Y42	Z42	X43	Y43	Z43	X44	Y44	Z44	X45	Y45	Z45	X46	Y46	Z46	X47	Y47	Z47	X48	Y48	Z48	X49	Y49	Z49	X50	Y50	Z50	X51	Y51	Z51	X52	Y52	Z52	

94	0.93	876.2153320312502	900.6635742187502	-387.2804565429689	672.6453247070314	937.731140136719	-323.1752319335938	669.7033081054689	934.0942382812502	-217.0286254882813	873.8614501953127	892.815124511719	-146.9206237792969	800.832214355469	879.617614746094	-452.0674438476564	821.128845214844	446.1826782226564	-393.4811401367189	819.7285156250002	447.270477294922	-262.9709167480469	806.6547851562502	383.9119873046876	-394.3316345214845	854.193298339844	380.9586486816407	-332.9739990234376	778.6206054687502	60.6195411682129	-345.5268554687501	803.5381469726565	86.42077636718751	-261.9165039062501	735.2554321289064	17.09614562988282	-289.3269348144532	923.9055786132815	28.74841308593751	-273.3441162109376	930.4539184570315	31.85018730163575	-325.2972412109376	873.1646118164065	11.69576168060303	-371.3072509765626	793.9695434570315	859.411560058594	-75.5174026489258	921.0736083984377	460.7850646972657	-95.29285430908205	957.3046875000002	455.4114074707032	-222.6107177734376	893.7005004882815	418.9698181152345	-91.22747802734376	955.7194824218752	390.9574584960939	-137.3999328613282	700.1206054687501	158.9503021240235	-117.0578918457032	736.9748535156251	159.3071594238282	-197.5858459472657	648.5774536132814	149.4842834472657	-173.4978179931641	792.0468750000002	48.4595184326172	-169.5753326416016	789.5323486328127	62.9752655029297	-121.373519897461	744.7262573242189	71.22280120849611	-87.35021972656251	726.1953125000001	1399.332153320313	-257.4298400878907	672.5234985351564	1118.89453125	-269.6816101074219	883.2786865234377	1086.1943359375	-261.5096130371094	839.0317382812502	1315.27685546875	-262.4617614746094	647.2752075195314	1183.3046875	-338.0816040039063	681.5646362304689	1323.5439453125	-342.4678955078126	723.4398803710939	1330.291259765625	-419.207977294922	772.5124511718752	1333.784912109375	-426.8794860839845	756.5708618164064	1025.052612304688	-509.1247558593751	735.7029418945314	1008.30078125	-429.498016357422	731.9644775390626	996.2925415039065	-474.4488220214845	868.354675292969	802.5345458984377	-496.569549560547	813.174987792969	805.6440429687502	-552.8842163085939	892.311218261719	714.9752807617189	-508.9078674316407	815.2958984375002	727.5702514648439	-566.6536865234376	651.4117431640626	1174.391723632813	-175.0412902832032	679.6254882812501	1317.91650390625	-173.8081207275391	731.8934326171876	1319.332763671875	-99.34294128417972	777.4409179687502	1315.940185546875	-83.1127395629883	741.9417724609376	1001.073181152344	-34.61534881591798	734.8591308593751	990.764587402344	-115.7481918334961	721.1703491210939	980.7882080078127	-68.3925018310547	864.6745605468752	786.8872680664065	-33.42247009277344	789.4629516601565	774.7979736328127	-7.093762874603273	892.1900024414065	702.7410278320314	-20.92687797546387	795.4212036132815	700.7290039062501	-0.4961904883384706	
95	0.9400000000000001	883.5806884765627	900.5230712890627	-388.8076782226564	680.4271240234376	938.180114746094	-323.6629638671876	677.6642456054689	934.9536132812502	-217.2954559326172	882.471862792969	893.8865966796877	-148.7770538330078	807.851745605469	879.1651611328127	-453.0983886718751	823.0410156250002	445.9846801757814	-393.9693908691407	822.3322753906252	447.0228881835939	-263.3425598144532	807.9170532226565	383.9216613769532	-394.6582641601564	855.7412109375002	380.5542907714844	-333.5932006835938	778.483825683594	60.62815475463869	-345.6402282714844	803.7309570312502	86.6457977294922	-262.2021179199219	735.1634521484376	17.13318061828614	-289.2864685058594	923.8570556640627	29.00855255126954	-273.5651550292969	930.4394531250002	31.9246997833252	-325.4437866210938	873.1382446289065	11.60381507873535	-371.3984985351563	803.2785644531252	861.2307128906252	-76.14989471435548	935.4326782226565	463.0708007812501	-96.96914672851565	970.1630859375002	458.6103515625001	-224.6954345703126	909.216247558594	419.9266052246095	-92.82420349121095	971.719665527344	394.289276123047	-139.5865020751953	726.0584106445314	151.5328674316407	-117.8609771728516	762.0281982421876	154.0989379882813	-198.7784881591797	674.0346679687501	140.1080627441407	-173.7339477539063	822.767517089844	46.25859832763673	-171.7174987792969	820.1882934570315	60.56277084350587	-123.4354553222657	775.3631591796877	66.20070648193361	-89.0009002685547	734.0728759765626	1399.779907226563	-258.4561462402344	680.4193115234376	1119.330444335938	-271.0959167480469	891.2958984375002	1087.33056640625	-262.1207275390626	846.8413696289065	1315.802368164063	-262.9374084472657	655.7909545898439	1183.973022460938	-340.1233825683594	689.8904418945314	1324.150634765625	-343.9591064453126	732.3093261718751	1331.200805664063	-420.385955810547	781.3853149414065	1334.838500976563	-427.6411132812501	768.8939208984377	1026.436157226563	-511.6263122558595	747.2187500000001	1009.129760742188	-432.0721435546876	744.2767333984376	997.1343383789065	-477.3141479492189	883.3242797851565	805.282653808594	-498.6173400878907	828.956726074219	808.0949707031252	-555.7795410156251	908.4490966796877	718.0115966796876	-511.3034973144532	832.2333984375002	730.2525024414064	-570.2562255859376	658.7557983398439	1174.709228515625	-176.9431762695313	687.1160278320314	1317.984252929688	-175.4210510253907	738.4943847656251	1319.676025390625	-100.7447586059571	783.8239746093752	1316.381103515625	-84.01110839843751	745.8267211914064	1001.987243652344	-35.93809890747071	740.1430053710939	991.655700683594	-117.1829833984375	725.4862670898439	981.8550415039065	-70.0137405395508	865.3553466796877	785.9842529296877	-32.03002548217774	789.8032226562502	775.2351074218752	-7.034679889678957	891.188659667969	701.1563110351564	-18.99927520751953	794.232360839844	701.0232543945314	-0.03976934775710107	
96	0.9500000000000001	891.0403442382815	900.169372558594	-390.2582092285157	688.2127075195314	938.5657958984377	-324.0807800292969	685.6826171875001	935.6866455078127	-217.4888763427735	891.0664672851565	894.734069824219	-150.5302886962891	814.9168090820315	878.6438598632815	-454.0659484863282	824.9521484375002	445.7600402832032	-394.4239501953126	824.9685668945315	446.7618103027345	-263.6742553710938	809.223327636719	383.9024047851563	-394.9625549316407	857.3318481445315	380.1239013671876	-334.2137145996094	778.3471679687502	60.633846282959	-345.7333068847657	803.9094238281252	86.83294677734376	-262.4418945312501	735.0408935546876	17.15872955322266	-289.2143859863282	923.8235473632815	29.28394317626954	-273.8040161132813	930.4297485351565	31.99581527709962	-325.6058349609376	873.093444824219	11.51262855529785	-371.4945983886719	812.575134277344	862.868103027344	-76.63386535644533	949.3323974609377	465.067108154297	-98.68406677246097	982.3896484375002	461.4409790039064	-226.8367462158204	924.4097900390627	420.5403747558595	-94.42525482177736	987.2310180664065	397.3819274902345	-141.8414459228516	752.6252441406251	143.7479858398438	-118.6156005859375	787.573425292969	148.5904235839844	-199.9603881835938	700.2591552734376	130.3032836914063	-173.8898315429688	853.9548339843752	44.06463623046876	-173.9600372314453	851.2883300781252	58.08559036254884	-125.5869750976563	806.5673828125002	61.0863380432129	-90.69139862060548	741.9702148437501	1400.100830078125	-259.4356079101563	688.3558349609376	1119.642211914063	-272.4465637207032	899.3704833984377	1088.390014648438	-262.7201538085938	854.682556152344	1316.224243164063	-263.3933105468751	664.3356933593751	1184.50537109375	-342.1129760742188	698.2431030273439	1324.607543945313	-345.3908691406251	741.1665039062501	1331.960083007813	-421.5115966796876	790.2224731445315	1335.765380859375	-428.374969482422	781.0428466796877	1027.704956054688	-514.0024414062501	758.7363281250001	1009.858825683594	-434.5400695800782	756.5201416015626	997.8648071289065	-480.0394592285157	898.2855224609377	808.0217285156252	-500.6311340332032	844.592712402344	810.4470214843752	-558.4882812500001	924.5911865234377	721.0593872070314	-513.5803222656251	849.0372314453127	732.8338623046876	-573.5353393554689	666.1690063476564	1174.8759765625	-178.7985992431641	694.6442260742189	1317.921630859375	-177.0038757324219	745.0279541015626	1319.895141601563	-102.1117324829102	790.2517700195315	1316.689208984375	-84.86423492431642	749.7016601562501	1002.784057617188	-37.20159149169923	745.4541015625001	992.3922119140627	-118.5332183837891	729.8381958007814	982.7843017578127	-71.57305145263673	866.140563964844	785.1065063476565	-30.67155456542969	790.252624511719	775.6289062500002	-7.003453254699709	890.3015136718752	699.6327514648439	-17.17245864868164	793.1868286132815	701.3058471679689	0.309830129146576	
97	0.96	898.5811767578127	899.616638183594	-391.6123352050782	696.0007934570314	938.873229980469	-324.4141540527344	693.7643432617189	936.275329589844	-217.6170654296876	899.6431274414065	895.3596801757815	-152.1393127441407	822.0057373046877	878.0625000000002	-454.9482421875001	826.9180297851565	445.5057067871095	-394.8312072753907	827.6411743164065	446.4946594238282	-263.9530029296876	810.6280517578127	383.8490905761719	-395.2315673828126	858.9976806640627	379.6625061035157	-334.8074645996094	778.2200317382815	60.6358985900879	-345.8008728027344	804.064147949219	86.96589660644533	-262.6203613281251	734.8960571289064	17.17352485656739	-289.1148986816407	923.804138183594	29.55758666992188	-274.0514526367188	930.4240722656252	32.0538558959961	-325.7784423828126	873.028747558594	11.4223690032959	-371.5939941406251	821.8364868164065	864.2874145507815	-76.98342132568361	962.725769042969	466.7435302734376	-100.4441223144532	993.9425048828127	463.8535461425782	-229.0296478271485	939.227966308594	420.819793701172	-96.046745300293	1002.194152832031	400.1983337402345	-144.1619720458985	779.8070068359377	135.7571105957032	-119.3228759765625	813.583190917969	142.8839721679688	-201.1165924072266	727.2648925781251	120.2020263671875	-173.9766540527344	885.572692871094	41.99066543579102	-176.2410583496094	882.7810058593752	55.68338012695314	-127.7721252441407	838.283874511719	56.05857086181642	-92.37788391113283	749.9046630859376	1400.286376953125	-260.3657836914063	696.3349609375001	1119.823608398438	-273.7251281738282	907.4936523437502	1089.296508789063	-263.3040161132813	862.570983886719	1316.519897460938	-263.8339843750001	672.9037475585939	1184.893188476563	-344.0342102050782	706.6339721679689	1324.90966796875	-346.7608032226563	750.0220336914064	1332.55224609375	-422.5865173339845	799.0432739257815	1336.536987304688	-429.0820617675782	793.0318603515627	1028.831787109375	-516.2666625976564	770.238220214844	1010.455322265625	-436.9262695312501	768.679138183594	998.464294433594	-482.6453857421876	913.2193603515627	810.7154541015627	-502.602508544922	860.0626220703127	812.6528320312502	-561.0051269531251	940.7362060546877	724.0972290039064	-515.7366943359376	865.6915283203127	735.2589721679689	-576.4761962890626	673.6447753906251	1174.885864257813	-180.6048278808594	702.2238769531251	1317.730102539063	-178.5478057861328	751.5027465820314	1319.974243164063	-103.4252319335938	796.7492675781252	1316.836303710938	-85.66042327880861	753.6055908203126	1003.432983398438	-38.39545059204102	750.7711181640626	992.939147949219	-119.7821502685547	734.2321166992189	983.554138183594	-73.04817962646486	867.077819824219	784.2290039062502	-29.37235832214356	790.8347167968752	775.937194824219	-7.006343364715578	889.5816650390627	698.1548461914064	-15.44665050506592	792.3313598632815	701.5360717773439	0.5437753200531007	
